<svg width="55" height="51" viewBox="0 0 55 51" fill="none" xmlns="http://www.w3.org/2000/svg">
<path fill-rule="evenodd" clip-rule="evenodd" d="M0.798828 25.3076C0.798828 11.3306 12.8569 0 27.7314 0C42.6058 0 54.6639 11.3306 54.6639 25.3076C54.6639 39.2846 42.6058 50.6152 27.7314 50.6152C12.8569 50.6152 0.798828 39.2846 0.798828 25.3076ZM14.6018 21.037V37.9614H20.3249V21.037H14.6018ZM14.2651 15.6591C14.2651 17.399 15.6117 18.6644 17.4633 18.6644C19.3149 18.6644 20.6616 17.399 20.6616 15.6591C20.6616 13.9192 19.3149 12.6538 17.4633 12.6538C15.7801 12.6538 14.2651 13.9192 14.2651 15.6591ZM35.4745 37.9614H40.861V27.522C40.861 22.3023 37.4944 20.5624 34.2962 20.5624C31.4346 20.5624 29.4147 22.3023 28.9097 23.4096V21.037H23.5232V37.9614H29.2463V28.9456C29.2463 26.573 30.9296 25.3076 32.6129 25.3076C34.2962 25.3076 35.4745 26.0985 35.4745 28.7874V37.9614Z" fill="black"/>
</svg>
