<svg width="54" height="51" viewBox="0 0 54 51" fill="none" xmlns="http://www.w3.org/2000/svg">
<path fill-rule="evenodd" clip-rule="evenodd" d="M0.671875 25.3076C0.671875 11.3306 12.5473 0 27.1963 0C41.8454 0 53.7208 11.3306 53.7208 25.3076C53.7208 39.2846 41.8454 50.6152 27.1963 50.6152C12.5473 50.6152 0.671875 39.2846 0.671875 25.3076ZM27.1963 12.6538C34.4906 12.6538 40.4586 18.348 40.4586 25.3076C40.4586 31.6345 35.651 37.0124 29.0199 37.9614V28.9456H32.1697L32.8328 25.3076H29.1857V22.935C29.1857 21.986 29.683 21.037 31.3408 21.037H32.9986V17.8735C32.9986 17.8735 31.5066 17.5572 30.0146 17.5572C27.0306 17.5572 25.0412 19.2971 25.0412 22.4605V25.3076H21.7257V28.9456H25.0412V37.8033C18.7417 36.8542 13.9341 31.6345 13.9341 25.3076C13.9341 18.348 19.9021 12.6538 27.1963 12.6538Z" fill="black"/>
</svg>
