<svg width="14" height="16" viewBox="0 0 14 16" fill="none" xmlns="http://www.w3.org/2000/svg">
<path fill-rule="evenodd" clip-rule="evenodd" d="M6.93633 7.92112C7.24783 7.92112 7.55234 8.02572 7.81135 8.22169C8.07036 8.41766 8.27223 8.69621 8.39144 9.0221C8.51065 9.34799 8.54184 9.7066 8.48106 10.0526C8.42029 10.3985 8.27029 10.7163 8.05002 10.9657C7.82975 11.2152 7.54912 11.385 7.2436 11.4538C6.93808 11.5227 6.6214 11.4873 6.3336 11.3524C6.04581 11.2174 5.79983 10.9888 5.62676 10.6955C5.4537 10.4022 5.36133 10.0574 5.36133 9.70462C5.36257 9.23204 5.52891 8.77922 5.82401 8.44505C6.11911 8.11088 6.519 7.92253 6.93633 7.92112ZM6.93633 2.57061C6.519 2.57202 6.11911 2.76038 5.82401 3.09455C5.52891 3.42871 5.36257 3.88153 5.36133 4.35411H8.51133C8.51008 3.88153 8.34374 3.42871 8.04864 3.09455C7.75354 2.76038 7.35366 2.57202 6.93633 2.57061ZM10.8738 15.0551H2.99883C2.5815 15.0537 2.18161 14.8654 1.88651 14.5312C1.59141 14.197 1.42507 13.7442 1.42383 13.2716V6.13761C1.42507 5.66503 1.59141 5.21221 1.88651 4.87805C2.18161 4.54388 2.5815 4.35552 2.99883 4.35411H3.78633C3.78633 3.40808 4.1182 2.5008 4.70894 1.83186C5.29968 1.16292 6.1009 0.787109 6.93633 0.787109C7.77176 0.787109 8.57297 1.16292 9.16371 1.83186C9.75445 2.5008 10.0863 3.40808 10.0863 4.35411H10.8738C11.2912 4.35552 11.691 4.54388 11.9861 4.87805C12.2812 5.21221 12.4476 5.66503 12.4488 6.13761V13.2716C12.4476 13.7442 12.2812 14.197 11.9861 14.5312C11.691 14.8654 11.2912 15.0537 10.8738 15.0551Z" fill="#222222"/>
</svg>
