<svg width="54" height="51" viewBox="0 0 54 51" fill="none" xmlns="http://www.w3.org/2000/svg">
<path fill-rule="evenodd" clip-rule="evenodd" d="M0.707031 25.3076C0.707031 11.3306 12.5824 0 27.2315 0C41.8806 0 53.756 11.3306 53.756 25.3076C53.756 39.2846 41.8806 50.6152 27.2315 50.6152C12.5824 50.6152 0.707031 39.2846 0.707031 25.3076ZM37.344 18.1899C38.5044 18.0317 39.4991 17.8735 40.4937 17.399C39.8306 18.5062 38.836 19.4552 37.6755 20.0879C38.0071 27.522 32.3706 35.5888 22.2582 35.5888C19.2742 35.5888 16.4559 34.6398 13.9693 33.2163C16.7875 33.5326 19.7715 32.7417 21.7608 31.3182C19.2742 31.3182 17.2848 29.7365 16.6217 27.6802C17.4506 27.8384 18.2795 27.6802 19.1084 27.522C16.6217 26.8894 14.7982 24.6749 14.7982 22.3023C15.627 22.6187 16.4559 22.935 17.2848 22.935C14.9639 21.3533 14.135 18.348 15.627 15.9754C18.4453 19.1389 22.4239 21.1951 26.8999 21.3533C26.0711 18.1899 28.7235 15.0264 32.2048 15.0264C33.6968 15.0264 35.1888 15.6591 36.1835 16.6081C37.5097 16.2918 38.6702 15.9754 39.6648 15.3427C39.3333 16.6081 38.5044 17.5572 37.344 18.1899Z" fill="black"/>
</svg>
