<svg width="54" height="51" viewBox="0 0 54 51" fill="none" xmlns="http://www.w3.org/2000/svg">
<path d="M27.1749 29.7365C24.6882 29.7365 22.5331 27.8384 22.5331 25.3076C22.5331 22.935 24.5224 20.8788 27.1749 20.8788C29.6615 20.8788 31.8166 22.7769 31.8166 25.3076C31.8166 27.6802 29.6615 29.7365 27.1749 29.7365Z" fill="black"/>
<path fill-rule="evenodd" clip-rule="evenodd" d="M32.8113 14.5519H21.5384C20.2122 14.7101 19.5491 14.8682 19.0517 15.0264C18.3886 15.1846 17.8913 15.5009 17.394 15.9754C17.0004 16.3509 16.8145 16.7264 16.5898 17.1802C16.5305 17.2999 16.4684 17.4252 16.3993 17.5572C16.3736 17.6306 16.344 17.7078 16.3123 17.7905C16.1389 18.2426 15.902 18.8601 15.902 19.9298V30.6855C16.0677 31.9509 16.2335 32.5836 16.3993 33.0581C16.5651 33.6908 16.8966 34.1653 17.394 34.6398C17.7875 35.0153 18.181 35.1927 18.6567 35.4071C18.7822 35.4637 18.9133 35.5228 19.0517 35.5888C19.1287 35.6133 19.2096 35.6416 19.2963 35.6718C19.7701 35.8373 20.4174 36.0634 21.5384 36.0634H32.8113C34.1375 35.9052 34.8006 35.747 35.298 35.5888C35.9611 35.4307 36.4584 35.1143 36.9558 34.6398C37.3493 34.2643 37.5352 33.8889 37.76 33.435C37.8192 33.3153 37.8812 33.1901 37.9504 33.0581C37.9761 32.9847 38.0057 32.9075 38.0374 32.8247C38.2108 32.3727 38.4478 31.7551 38.4478 30.6855V19.9298C38.282 18.6644 38.1162 18.0317 37.9504 17.5572C37.7846 16.9245 37.4531 16.45 36.9558 15.9754C36.5622 15.6 36.1687 15.4225 35.693 15.2081C35.5678 15.1516 35.4361 15.0923 35.298 15.0264C35.221 15.0019 35.1401 14.9737 35.0534 14.9434C34.5796 14.7779 33.9324 14.5519 32.8113 14.5519ZM27.1749 18.5062C23.1962 18.5062 20.0464 21.5115 20.0464 25.3076C20.0464 29.1038 23.1962 32.109 27.1749 32.109C31.1535 32.109 34.3033 29.1038 34.3033 25.3076C34.3033 21.5115 31.1535 18.5062 27.1749 18.5062ZM36.1269 18.348C36.1269 19.2216 35.3847 19.9298 34.4691 19.9298C33.5535 19.9298 32.8113 19.2216 32.8113 18.348C32.8113 17.4745 33.5535 16.7663 34.4691 16.7663C35.3847 16.7663 36.1269 17.4745 36.1269 18.348Z" fill="black"/>
<path fill-rule="evenodd" clip-rule="evenodd" d="M0.650391 25.3076C0.650391 11.3306 12.5258 0 27.1749 0C41.8239 0 53.6993 11.3306 53.6993 25.3076C53.6993 39.2846 41.8239 50.6152 27.1749 50.6152C12.5258 50.6152 0.650391 39.2846 0.650391 25.3076ZM21.5384 12.1793H32.8113C34.3033 12.3375 35.298 12.4956 36.1269 12.812C37.1215 13.2865 37.7846 13.6028 38.6135 14.3937C39.4424 15.1846 39.9398 15.9754 40.2713 16.7663C40.6029 17.5572 40.9344 18.5062 40.9344 19.9298V30.6855C40.7686 32.109 40.6029 33.0581 40.2713 33.8489C39.774 34.798 39.4424 35.4307 38.6135 36.2215C37.7846 37.0124 36.9558 37.4869 36.1269 37.8033C35.298 38.1196 34.3033 38.4359 32.8113 38.4359H21.5384C20.0464 38.2778 19.0517 38.1196 18.2229 37.8033C17.2282 37.3287 16.5651 37.0124 15.7362 36.2215C14.9073 35.4307 14.41 34.6398 14.0784 33.8489C13.7468 33.0581 13.4153 32.109 13.4153 30.6855V19.9298C13.5811 18.5062 13.7468 17.5572 14.0784 16.7663C14.5757 15.8173 14.9073 15.1846 15.7362 14.3937C16.5651 13.6028 17.394 13.1283 18.2229 12.812C19.0517 12.4956 20.0464 12.1793 21.5384 12.1793Z" fill="black"/>
</svg>
